# xmcd
# Copyright (C) 1995-1998 Ti Kan
#
# Track frame offsets:
#       150
#       24450
#       41550
#       62600
#       76325
#       96800
#       114200
#       126725
#       149612
#       164342
#       182942
#       201392
#
# Disc length: 2727 seconds
#
# Revision: 0
# Processed by: cddbd v1.5.2PL0 Copyright (c) Steve Scherf et al.
# Submitted via: CD-Import v1.0
#
DISCID=ac0aa50c
DTITLE=Thomis Erben - Alpendschungel
DYEAR=08
DGENRE=
TTITLE0=Alpen-Suite
TTITLE1=Gennetines
TTITLE2=Urbalz
TTITLE3=Herbst
TTITLE4=Zugwind
TTITLE5=Franziska Valse D'amour
TTITLE6=Safran
TTITLE7=Cönneli Polka
TTITLE8=Loore Walzer
TTITLE9=Fernweh
TTITLE10=Heimkehr
TTITLE11=Wildstrubel
EXTD=
EXTT0=
EXTT1=
EXTT2=
EXTT3=
EXTT4=
EXTT5=
EXTT6=
EXTT7=
EXTT8=
EXTT9=
EXTT10=
EXTT11=
PLAYORDER=
